<svg width="298" height="313" viewBox="0 0 298 313" fill="none" xmlns="http://www.w3.org/2000/svg">
<rect width="138" height="1.99999" transform="matrix(-1 8.74228e-08 8.74228e-08 1 145 311)" fill="url(#paint0_linear_470_10)"/>
<g filter="url(#filter0_b_470_10)">
<rect width="100" height="100" transform="matrix(-4.37114e-08 -1 -1 4.37114e-08 100 301)" fill="url(#paint1_linear_470_10)" fill-opacity="0.1"/>
</g>
<g filter="url(#filter1_b_470_10)">
<rect width="200" height="199" transform="matrix(-4.37114e-08 -1 -1 4.37114e-08 298 200)" fill="url(#paint2_linear_470_10)" fill-opacity="0.1"/>
</g>
<rect width="280" height="1.00004" transform="matrix(1.31134e-07 -1 -1 -1.31134e-07 100 284)" fill="url(#paint3_linear_470_10)"/>
<rect width="297" height="1" transform="matrix(1 0 0 -1 1 201)" fill="url(#paint4_linear_470_10)"/>
<defs>
<filter id="filter0_b_470_10" x="-10" y="191" width="120" height="120" filterUnits="userSpaceOnUse" color-interpolation-filters="sRGB">
<feFlood flood-opacity="0" result="BackgroundImageFix"/>
<feGaussianBlur in="BackgroundImage" stdDeviation="5"/>
<feComposite in2="SourceAlpha" operator="in" result="effect1_backgroundBlur_470_10"/>
<feBlend mode="normal" in="SourceGraphic" in2="effect1_backgroundBlur_470_10" result="shape"/>
</filter>
<filter id="filter1_b_470_10" x="89" y="-10" width="219" height="220" filterUnits="userSpaceOnUse" color-interpolation-filters="sRGB">
<feFlood flood-opacity="0" result="BackgroundImageFix"/>
<feGaussianBlur in="BackgroundImage" stdDeviation="5"/>
<feComposite in2="SourceAlpha" operator="in" result="effect1_backgroundBlur_470_10"/>
<feBlend mode="normal" in="SourceGraphic" in2="effect1_backgroundBlur_470_10" result="shape"/>
</filter>
<linearGradient id="paint0_linear_470_10" x1="138" y1="0" x2="0" y2="5.31942e-08" gradientUnits="userSpaceOnUse">
<stop stop-color="white" stop-opacity="0"/>
<stop offset="0.321415" stop-color="white"/>
<stop offset="1" stop-color="white" stop-opacity="0"/>
</linearGradient>
<linearGradient id="paint1_linear_470_10" x1="100" y1="4.73526e-06" x2="20.5556" y2="79.4444" gradientUnits="userSpaceOnUse">
<stop stop-color="#D0E1ED"/>
<stop offset="1" stop-color="#DFE8EE" stop-opacity="0"/>
</linearGradient>
<linearGradient id="paint2_linear_470_10" x1="1.24176e-05" y1="199" x2="159.31" y2="60.0149" gradientUnits="userSpaceOnUse">
<stop stop-color="#C6DAE9"/>
<stop offset="1" stop-color="#DFE8EE" stop-opacity="0"/>
</linearGradient>
<linearGradient id="paint3_linear_470_10" x1="280" y1="0" x2="0" y2="4.37931e-07" gradientUnits="userSpaceOnUse">
<stop stop-color="white" stop-opacity="0"/>
<stop offset="0.701186" stop-color="#DEE7F0"/>
<stop offset="1" stop-color="white" stop-opacity="0"/>
</linearGradient>
<linearGradient id="paint4_linear_470_10" x1="297" y1="0" x2="0" y2="4.92741e-07" gradientUnits="userSpaceOnUse">
<stop stop-color="white" stop-opacity="0"/>
<stop offset="0.667926" stop-color="#DEE7F0"/>
<stop offset="1" stop-color="white" stop-opacity="0"/>
</linearGradient>
</defs>
</svg>
