<svg width="143" height="26" viewBox="0 0 143 26" fill="none" xmlns="http://www.w3.org/2000/svg">
<g clip-path="url(#clip0_378_18)">
<path d="M39.4487 21.4051C39.3444 21.3041 39.2402 21.1022 39.3966 20.9507L41.3248 18.7799C41.429 18.6284 41.6374 18.6284 41.7417 18.7294C43.0966 19.7896 45.1291 20.9003 47.5263 20.9003C50.0799 20.9003 51.5391 19.6381 51.5391 17.9216C51.5391 16.4575 50.601 15.4478 47.6826 15.0944L46.5361 14.943C42.4192 14.4381 40.1262 12.5197 40.1262 9.08666C40.1262 5.35074 42.9403 2.87695 47.3178 2.87695C49.9756 2.87695 52.4771 3.68472 54.1969 4.94686C54.3532 5.04783 54.4053 5.19928 54.249 5.35074L52.7377 7.5721C52.6334 7.72356 52.4771 7.77404 52.3208 7.67307C50.601 6.56239 48.9855 6.05754 47.2136 6.05754C45.077 6.05754 43.8783 7.2187 43.8783 8.83423C43.8783 10.2478 44.9206 11.2071 47.7869 11.6109L48.9334 11.7624C52.9982 12.3177 55.2912 14.1857 55.2912 17.7197C55.2912 21.4051 52.5813 24.0808 47.3178 24.0808C44.1389 24.1313 41.1163 22.9197 39.4487 21.4051Z" fill="#1F3342"/>
<path d="M69.7785 3.53338C69.8306 3.33144 69.987 3.23047 70.1954 3.23047H73.0617C73.2701 3.23047 73.4265 3.33144 73.4786 3.53338L80.6703 23.5256C80.7224 23.7276 80.6703 23.8285 80.4618 23.8285H77.3871C77.1787 23.8285 77.0223 23.7276 76.9702 23.5256L75.5632 19.5373H67.5898L66.1827 23.5256C66.1306 23.7276 65.9742 23.8285 65.7658 23.8285H62.7432C62.5347 23.8285 62.4826 23.7276 62.5347 23.5256L69.7785 3.53338ZM74.4688 16.3062L71.6546 8.3295H71.5504L68.6841 16.3062H74.4688Z" fill="#1F3342"/>
<path d="M89.1655 3.53338C89.1655 3.33144 89.2697 3.23047 89.4782 3.23047H97.0868C100.735 3.23047 103.184 4.79552 104.174 7.77416C104.539 8.78387 104.695 9.94503 104.695 13.479C104.695 17.0635 104.487 18.1742 104.174 19.1839C103.184 22.1625 100.735 23.7276 97.0868 23.7276H89.4782C89.2697 23.7276 89.1655 23.6266 89.1655 23.4246V3.53338ZM93.0741 20.5975H96.253C98.5981 20.5975 100.057 19.8402 100.631 17.9722C100.839 17.4169 100.995 16.4577 100.995 13.479C100.995 10.5004 100.839 9.59163 100.631 8.98581C100.005 7.11785 98.546 6.36057 96.253 6.36057H93.0741C92.9698 6.36057 92.8656 6.41105 92.8656 6.56251V20.345C92.8656 20.547 92.9177 20.5975 93.0741 20.5975Z" fill="#1F3342"/>
<path d="M114.337 3.53338C114.337 3.33144 114.441 3.23047 114.65 3.23047H117.725C117.933 3.23047 118.037 3.33144 118.037 3.53338V23.5256C118.037 23.7276 117.933 23.8285 117.725 23.8285H114.65C114.441 23.8285 114.337 23.7276 114.337 23.5256V3.53338Z" fill="#1F3342"/>
<path d="M127.206 21.4051C127.102 21.3041 126.998 21.1022 127.154 20.9507L129.082 18.7799C129.186 18.6284 129.395 18.6284 129.499 18.7294C130.854 19.7896 132.886 20.9003 135.284 20.9003C137.837 20.9003 139.296 19.6381 139.296 17.9216C139.296 16.4575 138.358 15.4478 135.44 15.0944L134.294 14.943C130.177 14.3876 127.884 12.4692 127.884 9.08666C127.884 5.35074 130.698 2.87695 135.075 2.87695C137.733 2.87695 140.234 3.68472 141.954 4.94686C142.111 5.04783 142.163 5.19928 142.006 5.35074L140.495 7.5721C140.391 7.72356 140.234 7.77404 140.078 7.67307C138.358 6.56239 136.743 6.05754 134.971 6.05754C132.834 6.05754 131.636 7.2187 131.636 8.83423C131.636 10.2478 132.678 11.2071 135.544 11.6109L136.691 11.7624C140.808 12.3177 143.049 14.1857 143.049 17.7197C143.049 21.4051 140.339 24.0808 135.075 24.0808C131.896 24.1313 128.822 22.9197 127.206 21.4051Z" fill="#1F3342"/>
<path d="M20.6891 26H6.14942C2.76203 26 0 23.3243 0 20.0427V5.95728C0 2.67573 2.76203 0 6.14942 0H20.6891C24.0765 0 26.8386 2.67573 26.8386 5.95728V20.0427C26.8386 23.3243 24.0765 26 20.6891 26ZM6.14942 1.06019C3.33528 1.06019 1.04227 3.28155 1.04227 6.00777V20.0932C1.04227 22.8194 3.33528 25.0408 6.14942 25.0408H20.6891C23.5033 25.0408 25.7963 22.8194 25.7963 20.0932V5.95728C25.7963 3.23107 23.5033 1.00971 20.6891 1.00971H6.14942V1.06019Z" fill="#1F3342"/>
<path opacity="0.4" d="M13.4453 6.20898L8.3382 8.98568L9.74527 9.79345L13.3932 7.77403L19.5426 11.1566L23.5033 8.98568L21.0018 10.3488L13.4453 6.20898Z" fill="#1F3342"/>
<path opacity="0.4" d="M12.9228 19.8908C13.1833 20.0422 13.496 20.0422 13.7045 19.8908L18.4468 17.316L17.2482 16.6597L13.3918 18.7801L6.98181 15.2461L3.28174 17.2655L5.67897 15.9529L12.9228 19.8908Z" fill="#1F3342"/>
<path opacity="0.4" d="M7.24263 11.1074L3.33411 13.2278L7.03418 15.2977L10.9427 13.1773L7.24263 11.1074Z" fill="#1F3342"/>
<path opacity="0.4" d="M19.542 11.1582L15.9461 13.1271L19.8025 15.298L23.5026 13.2786L19.542 11.1582Z" fill="#1F3342"/>
<path opacity="0.55" d="M9.74628 9.79481L15.9478 13.1268L19.5437 11.1579L13.3942 7.77539L9.74628 9.79481Z" fill="#1F3342"/>
<path opacity="0.55" d="M17.2491 16.7098L10.9433 13.1758L7.03479 15.2962L13.4448 18.8302L17.2491 16.7098Z" fill="#1F3342"/>
<path d="M22.3035 16.61L19.802 15.2973L15.9456 13.1265L9.79621 9.74395L8.33702 8.98666L13.4442 6.20997L21.0006 10.3498L23.5021 8.98666L14.2259 3.93812C13.7047 3.63521 13.0794 3.63521 12.5582 3.93812L4.58484 8.27987C4.27215 8.48181 4.16793 8.73424 4.16793 9.03715C4.16793 9.28958 4.32427 9.49152 4.53272 9.64298L7.24263 11.1575L10.8906 13.177L17.2485 16.7109L18.4471 17.3672L13.7047 19.942C13.4442 20.0935 13.1315 20.0935 12.923 19.942L5.73134 16.0041L3.33411 17.3168L12.5061 22.3653C13.0794 22.6682 13.7568 22.6682 14.3301 22.3653L22.3035 17.9731C22.8246 17.6702 22.8246 16.9129 22.3035 16.61Z" fill="#1F3342"/>
</g>
<defs>
<clipPath id="clip0_378_18">
<rect width="143" height="26" fill="white"/>
</clipPath>
</defs>
</svg>
